<svg xmlns="http://www.w3.org/2000/svg" xmlns:xlink="http://www.w3.org/1999/xlink" version="1.1" width="1000" height="1000" viewBox="0 0 1000 1000" xml:space="preserve">
<desc>Created with Fabric.js 3.5.0</desc>
<defs>
</defs>
<rect x="0" y="0" width="100%" height="100%" fill="rgba(31,45,61,0)"/>
<g transform="matrix(1.4642 0 0 1.4642 136.2751 651.225)" id="178089">
<path style="stroke: none; stroke-width: 1; stroke-dasharray: none; stroke-linecap: butt; stroke-dashoffset: 0; stroke-linejoin: miter; stroke-miterlimit: 4; is-custom-font: none; font-file-url: none; fill: rgb(242,242,242); fill-rule: nonzero; opacity: 1;" transform=" translate(-79.5867, -337.9695)" d="M 108.40148 315.94602 c -3.16093 0.3401 -6.60921 0.85055 -10.27718 1.59744 c -15.55246 3.16687 -15.87526 13.72736 -15.73896 16.14847 l -0.10566 -0.06586 c -1.56382 2.50859 -2.54325 5.0473 -3.13519 7.44337 l -0.71221 -32.36652 c 0.46052 -0.9602 0.87954 -2.04896 1.22889 -3.16494 c 1.16419 3.58504 3.07256 6.97195 4.7176 6.74748 c 2.13909 -0.2919 3.07167 -6.58596 2.67265 -11.05881 c 2.72016 3.50314 7.2981 7.24972 9.02511 6.09446 c 1.38001 -0.92313 0.56173 -4.72359 -0.94492 -8.17871 c 3.13929 1.89132 6.61613 3.13439 7.69503 1.93342 c 1.47227 -1.63885 -2.05557 -7.23082 -5.30905 -10.35235 c 4.35496 0.40613 9.89372 -0.28771 10.25684 -2.26977 c 0.2992 -1.6331 -2.99722 -3.69384 -6.5255 -5.02014 c 3.5439 -0.93441 6.85789 -2.56256 6.74798 -4.17324 c -0.13057 -1.91338 -5.05068 -3.19543 -9.29526 -3.39051 c 3.20154 -2.50471 6.14321 -5.96711 5.24362 -7.53303 c -0.82704 -1.43962 -4.67439 -0.88198 -8.22406 0.38596 c 2.10064 -3.00326 3.5775 -6.38742 2.45277 -7.54556 c -1.40106 -1.44266 -6.37359 1.04738 -9.76711 3.79978 c 0.66062 -4.28797 0.32665 -9.70052 -1.59659 -10.19022 c -1.60895 -0.40967 -3.88929 2.73886 -5.4527 6.16866 c -0.69097 -3.59931 -2.08979 -7.01645 -3.7042 -7.01645 c -2.29982 0 -4.16418 6.93399 -4.16418 11.45149 c 0 0.25536 0.00677 0.49574 0.01843 0.72541 c -0.23083 -0.26761 -0.49538 -0.54719 -0.79707 -0.84018 c -3.24076 -3.14728 -9.51391 -6.64064 -11.11616 -4.99082 c -1.12474 1.15814 0.35212 4.5423 2.45277 7.54556 c -3.54967 -1.26794 -7.39702 -1.82559 -8.22406 -0.38596 c -1.11127 1.93439 3.63883 6.76323 7.4999 9.10499 c -0.2321 -0.02796 -0.47595 -0.0515 -0.73547 -0.0692 c -4.50701 -0.30752 -11.55183 1.08049 -11.7084 3.37497 c -0.10991 1.61067 3.20409 3.23883 6.74798 4.17324 c -3.52829 1.3263 -6.8247 3.38704 -6.5255 5.02014 c 0.36312 1.98206 5.90188 2.6759 10.25684 2.26977 c -3.25348 3.12154 -6.78132 8.7135 -5.30905 10.35235 c 1.0789 1.20097 4.55573 -0.0421 7.69503 -1.93342 c -1.50665 3.45512 -2.32492 7.25558 -0.94492 8.17871 c 1.82373 1.21996 6.82541 -3.02601 9.4625 -6.67949 c -0.2687 4.46965 0.80077 10.61004 2.9228 10.85236 c 0.88742 0.10134 1.82777 -0.84507 2.67643 -2.3023 l -2.40356 34.79012 c -0.56184 4.05159 3.03199 6.69542 3.35318 8.36434 l 0.51842 23.5593 c -0.58508 -1.67794 -1.37316 -3.3952 -2.43548 -5.09933 l -0.10566 0.0659 c 0.13628 -2.42136 -0.18675 -12.98155 -15.73896 -16.14836 c -3.66797 -0.74689 -7.11625 -1.25734 -10.27718 -1.59744 c -3.73116 -0.40145 -5.1866 4.70611 -1.81595 6.35581 c 4.88144 2.38917 9.4733 5.39935 11.86668 8.96403 c 6.11901 9.11359 14.5737 3.84542 15.77578 3.0275 c 1.34266 2.23509 2.22306 4.48687 2.77913 6.62945 l 0.27531 12.51144 c -0.06744 0.2959 -0.11414 0.46159 -0.11777 0.47403 l 0.12902 0.03782 l 0.66628 30.27884 l 6.18057 -0.04965 l -2.21068 -30.94947 c 0.37149 -1.66957 1.51435 -7.35722 0 -13.26406 l -2.21068 -24.31744 h 0 c -0.0055 -0.01877 0.12548 0.63842 0 0 l -2.8837 -9.55504 c 0.41933 -2.95604 1.3925 -6.28098 3.36894 -9.57097 c 1.20206 0.81791 9.65677 6.08611 15.77579 -3.0275 c 2.39338 -3.56469 6.98524 -6.57486 11.86668 -8.96403 c 3.37065 -1.64971 1.91521 -6.75726 -1.81595 -6.35581 Z m -28.23342 71.6385 l -0.11651 -5.2952 c 0.23499 2.00214 0.2231 3.80933 0.11651 5.2952 Z" stroke-linecap="round"/>
</g>
<g transform="matrix(1.4642 0 0 1.4642 828.8386 651.225)" id="67318">
<path style="stroke: none; stroke-width: 1; stroke-dasharray: none; stroke-linecap: butt; stroke-dashoffset: 0; stroke-linejoin: miter; stroke-miterlimit: 4; is-custom-font: none; font-file-url: none; fill: rgb(242,242,242); fill-rule: nonzero; opacity: 1;" transform=" translate(-552.5867, -337.9695)" d="M 581.40148 315.94602 c -3.16093 0.3401 -6.60921 0.85055 -10.27718 1.59744 c -15.55246 3.16687 -15.87526 13.72736 -15.73896 16.14847 l -0.10566 -0.06586 c -1.56382 2.50859 -2.54325 5.0473 -3.13519 7.44337 l -0.71221 -32.36652 c 0.46052 -0.9602 0.87954 -2.04896 1.22889 -3.16494 c 1.16419 3.58504 3.07256 6.97195 4.7176 6.74748 c 2.13909 -0.2919 3.07167 -6.58596 2.67265 -11.05881 c 2.72016 3.50314 7.2981 7.24972 9.02511 6.09446 c 1.38001 -0.92313 0.56173 -4.72359 -0.94492 -8.17871 c 3.13929 1.89132 6.61613 3.13439 7.69503 1.93342 c 1.47227 -1.63885 -2.05557 -7.23082 -5.30905 -10.35235 c 4.35496 0.40613 9.89372 -0.28771 10.25684 -2.26977 c 0.2992 -1.6331 -2.99722 -3.69384 -6.5255 -5.02014 c 3.5439 -0.93441 6.85789 -2.56256 6.74798 -4.17324 c -0.13057 -1.91338 -5.05068 -3.19543 -9.29526 -3.39051 c 3.20154 -2.50471 6.14321 -5.96711 5.24362 -7.53303 c -0.82704 -1.43962 -4.67439 -0.88198 -8.22406 0.38596 c 2.10064 -3.00326 3.5775 -6.38742 2.45277 -7.54556 c -1.40106 -1.44266 -6.37359 1.04738 -9.76711 3.79978 c 0.66062 -4.28797 0.32665 -9.70052 -1.59659 -10.19022 c -1.60895 -0.40967 -3.88929 2.73886 -5.4527 6.16866 c -0.69097 -3.59931 -2.08979 -7.01645 -3.7042 -7.01645 c -2.29982 0 -4.16418 6.93399 -4.16418 11.45149 c 0 0.25536 0.00677 0.49574 0.01843 0.72541 c -0.23083 -0.26761 -0.49538 -0.54719 -0.79707 -0.84018 c -3.24076 -3.14728 -9.51391 -6.64064 -11.11616 -4.99082 c -1.12474 1.15814 0.35212 4.5423 2.45277 7.54556 c -3.54967 -1.26794 -7.39702 -1.82559 -8.22406 -0.38596 c -1.11127 1.93439 3.63883 6.76323 7.4999 9.10499 c -0.2321 -0.02796 -0.47595 -0.0515 -0.73547 -0.0692 c -4.50701 -0.30752 -11.55183 1.08049 -11.7084 3.37497 c -0.10991 1.61067 3.20409 3.23883 6.74798 4.17324 c -3.52829 1.3263 -6.8247 3.38704 -6.5255 5.02014 c 0.36312 1.98206 5.90188 2.6759 10.25684 2.26977 c -3.25348 3.12154 -6.78132 8.7135 -5.30905 10.35235 c 1.0789 1.20097 4.55573 -0.0421 7.69503 -1.93342 c -1.50665 3.45512 -2.32492 7.25558 -0.94492 8.17871 c 1.82373 1.21996 6.82541 -3.02601 9.4625 -6.67949 c -0.2687 4.46965 0.80077 10.61004 2.9228 10.85236 c 0.88742 0.10134 1.82777 -0.84507 2.67643 -2.3023 l -2.40356 34.79012 c -0.56184 4.05159 3.03199 6.69542 3.35318 8.36434 l 0.51842 23.5593 c -0.58508 -1.67794 -1.37316 -3.3952 -2.43548 -5.09933 l -0.10566 0.0659 c 0.13628 -2.42136 -0.18675 -12.98155 -15.73896 -16.14836 c -3.66797 -0.74689 -7.11625 -1.25734 -10.27718 -1.59744 c -3.73116 -0.40145 -5.1866 4.70611 -1.81595 6.35581 c 4.88144 2.38917 9.4733 5.39935 11.86668 8.96403 c 6.11901 9.11359 14.5737 3.84542 15.77578 3.0275 c 1.34266 2.23509 2.22306 4.48687 2.77913 6.62945 l 0.27531 12.51144 c -0.06744 0.2959 -0.11414 0.46159 -0.11777 0.47403 l 0.12902 0.03782 l 0.66628 30.27884 l 6.18057 -0.04965 l -2.21068 -30.94947 c 0.37149 -1.66957 1.51435 -7.35722 0 -13.26406 l -2.21068 -24.31744 h 0 c -0.0055 -0.01877 0.12548 0.63842 0 0 l -2.8837 -9.55504 c 0.41933 -2.95604 1.3925 -6.28098 3.36894 -9.57097 c 1.20206 0.81791 9.65677 6.08611 15.77579 -3.0275 c 2.39338 -3.56469 6.98524 -6.57486 11.86668 -8.96403 c 3.37065 -1.64971 1.91521 -6.75726 -1.81595 -6.35581 Z m -28.23342 71.6385 l -0.11651 -5.2952 c 0.23499 2.00214 0.2231 3.80933 0.11651 5.2952 Z" stroke-linecap="round"/>
</g>
<g transform="matrix(1.4642 0 0 1.4642 711.102 393.2175)" id="453391">
<path style="stroke: none; stroke-width: 1; stroke-dasharray: none; stroke-linecap: butt; stroke-dashoffset: 0; stroke-linejoin: miter; stroke-miterlimit: 4; is-custom-font: none; font-file-url: none; fill: rgb(226,198,170); fill-rule: nonzero; opacity: 1;" transform=" translate(-472.1762, -161.7582)" d="M 485.44292 216.85712 l -2.89819 -69.09314 s -3.25537 -41.01923 -5.85986 -55.34344 c -2.60437 -14.32416 -20.18408 -10.4176 -20.18408 -10.4176 l 1.95337 41.01929 l 8.42773 41.97778 l 6.55957 57.16211 c -0.33789 1.6535 -0.5293 3.45087 -0.5293 5.33789 c 0 8.00812 3.34424 14.5 7.46973 14.5 s 7.46973 -6.49188 7.46973 -14.5 c 0 -4.21252 -0.93103 -7.99371 -2.40869 -10.64288 Z" stroke-linecap="round"/>
</g>
<g transform="matrix(1.4642 0 0 1.4642 575.0378 375.5641)" id="812953">
<path style="stroke: none; stroke-width: 1; stroke-dasharray: none; stroke-linecap: butt; stroke-dashoffset: 0; stroke-linejoin: miter; stroke-miterlimit: 4; is-custom-font: none; font-file-url: none; fill: rgb(226,198,170); fill-rule: nonzero; opacity: 1;" transform=" translate(-379.2483, -149.7015)" d="M 344.36666 198.95449 c 3.08175 -3.6707 6.77264 -6.1651 10.08696 -7.12522 l 38.98077 -44.06526 s 3.2555 -41.01927 5.8599 -55.34346 c 2.6044 -14.32419 20.18408 -10.41759 20.18408 -10.41759 l -1.9533 41.01927 l -11.06869 44.27477 l -45.61337 38.72532 c -0.79655 1.45114 -1.77304 2.90165 -2.94266 4.29478 c -5.54929 6.60955 -13.07747 9.42409 -16.81477 6.28638 c -3.73715 -3.13771 -2.2682 -11.03944 3.28109 -17.64899 Z" stroke-linecap="round"/>
</g>
<g transform="matrix(1.4642 0 0 1.4642 669.6052 259.1862)" id="337302">
<polygon style="stroke: none; stroke-width: 1; stroke-dasharray: none; stroke-linecap: butt; stroke-dashoffset: 0; stroke-linejoin: miter; stroke-miterlimit: 4; is-custom-font: none; font-file-url: none; fill: rgb(226,198,170); fill-rule: nonzero; opacity: 1;" points="-13.7038,6.2495 -9.182,-11.1339 8.4335,-11.9813 13.7039,11.9813 -13.7038,6.2495 "/>
</g>
<g transform="matrix(1.4642 0 0 1.4642 669.6052 259.1862)" id="467505">
<polygon style="stroke: none; stroke-width: 1; stroke-dasharray: none; stroke-linecap: butt; stroke-dashoffset: 0; stroke-linejoin: miter; stroke-miterlimit: 4; is-custom-font: none; font-file-url: none; fill: rgb(124,62,62); fill-rule: nonzero; opacity: 0.1;" points="-13.7038,6.2495 -9.182,-11.1339 8.4335,-11.9813 13.7039,11.9813 -13.7038,6.2495 "/>
</g>
<g transform="matrix(1.4642 0 0 1.4642 571.5982 721.4794)" id="964942">
<polygon style="stroke: none; stroke-width: 1; stroke-dasharray: none; stroke-linecap: butt; stroke-dashoffset: 0; stroke-linejoin: miter; stroke-miterlimit: 4; is-custom-font: none; font-file-url: none; fill: rgb(226,198,170); fill-rule: nonzero; opacity: 1;" points="8.2494,-24.6946 -8.2494,-25.6371 -6.0851,24.9977 5.0948,25.6371 8.2494,-24.6946 "/>
</g>
<g transform="matrix(1.4642 0 0 1.4642 557.5807 756.4787)" id="850891">
<path style="stroke: none; stroke-width: 1; stroke-dasharray: none; stroke-linecap: butt; stroke-dashoffset: 0; stroke-linejoin: miter; stroke-miterlimit: 4; is-custom-font: none; font-file-url: none; fill: rgb(111,163,214); fill-rule: nonzero; opacity: 1;" transform=" translate(-367.3258, -409.8549)" d="M 369.38449 394.93938 l 5.72891 2.61332 l -0.00743 3.47275 s 1.38213 -4.01923 8.80109 -4.89615 l 0.88559 3.36705 s 2.87736 3.30264 2.38384 9.27645 l -1.8885 15.99763 l -5.59502 -0.12882 l -0.90369 -11.132 s -1.5413 -2.52606 -8.64068 9.47718 c 0 0 -7.82052 1.9711 -19.93118 -2.08958 c -1.66453 -0.55811 -2.82078 -2.11212 -2.79901 -3.86759 c 0.01202 -0.96878 0.39069 -1.8641 1.60549 -2.18526 c 3.0922 -0.8175 6.11176 0.21911 8.10866 -2.24898 c 1.9969 -2.46809 12.25193 -17.656 12.25193 -17.656 Z" stroke-linecap="round"/>
</g>
<g transform="matrix(1.4642 0 0 1.4642 701.2518 721.4794)" id="258656">
<polygon style="stroke: none; stroke-width: 1; stroke-dasharray: none; stroke-linecap: butt; stroke-dashoffset: 0; stroke-linejoin: miter; stroke-miterlimit: 4; is-custom-font: none; font-file-url: none; fill: rgb(226,198,170); fill-rule: nonzero; opacity: 1;" points="8.2494,-24.6946 -8.2494,-25.6371 -6.0851,24.9977 5.0948,25.6371 8.2494,-24.6946 "/>
</g>
<g transform="matrix(1.4642 0 0 1.4642 687.2344 756.4787)" id="570865">
<path style="stroke: none; stroke-width: 1; stroke-dasharray: none; stroke-linecap: butt; stroke-dashoffset: 0; stroke-linejoin: miter; stroke-miterlimit: 4; is-custom-font: none; font-file-url: none; fill: rgb(111,163,214); fill-rule: nonzero; opacity: 1;" transform=" translate(-455.8753, -409.8549)" d="M 457.93402 394.93938 l 5.72891 2.61332 l -0.00743 3.47275 s 1.38213 -4.01923 8.80109 -4.89615 l 0.88559 3.36705 s 2.87736 3.30264 2.38384 9.27645 l -1.8885 15.99763 l -5.59502 -0.12882 l -0.90369 -11.132 s -1.5413 -2.52606 -8.64068 9.47718 c 0 0 -7.82052 1.9711 -19.93118 -2.08958 c -1.66453 -0.55811 -2.82078 -2.11212 -2.79901 -3.86759 c 0.01202 -0.96878 0.39069 -1.8641 1.60549 -2.18526 c 3.0922 -0.8175 6.11176 0.21911 8.10866 -2.24898 c 1.9969 -2.46809 12.25193 -17.656 12.25193 -17.656 Z" stroke-linecap="round"/>
</g>
<g transform="matrix(1.4642 0 0 1.4642 669.371 229.2731)" id="789836">
<circle style="stroke: none; stroke-width: 1; stroke-dasharray: none; stroke-linecap: butt; stroke-dashoffset: 0; stroke-linejoin: miter; stroke-miterlimit: 4; is-custom-font: none; font-file-url: none; fill: rgb(226,198,170); fill-rule: nonzero; opacity: 1;" cx="0" cy="0" r="19.53299"/>
</g>
<g transform="matrix(1.4642 0 0 1.4642 673.2637 199.6279)" id="326456">
<path style="stroke: none; stroke-width: 1; stroke-dasharray: none; stroke-linecap: butt; stroke-dashoffset: 0; stroke-linejoin: miter; stroke-miterlimit: 4; is-custom-font: none; font-file-url: none; fill: rgb(111,163,214); fill-rule: nonzero; opacity: 1;" transform=" translate(-446.3338, -29.5426)" d="M 454.75196 53.03639 s -8.58797 -14.05193 -17.1846 -12.50095 c -8.59662 1.55098 -13.07809 2.95128 -13.07809 2.95128 c 0 0 -3.50075 -11.20367 8.25239 -16.57884 c 0 0 -16.63273 -13.92589 1.09406 -22.86307 c 17.72679 -8.93718 28.7577 -0.27561 28.7577 -0.27561 c 0 0 14.67194 12.44289 -1.59513 23.95832 c 0 0 14.07934 16.03785 -0.14106 31.35764 c 0 0 2.5104 -11.66516 -0.9046 -9.27374 c -3.41501 2.39142 -5.20067 3.22497 -5.20067 3.22497 Z" stroke-linecap="round"/>
</g>
<g transform="matrix(1.4642 0 0 1.4642 663.7563 332.2104)" id="337595">
<path style="stroke: none; stroke-width: 1; stroke-dasharray: none; stroke-linecap: butt; stroke-dashoffset: 0; stroke-linejoin: miter; stroke-miterlimit: 4; is-custom-font: none; font-file-url: none; fill: rgb(249,199,79); fill-rule: nonzero; opacity: 1;" transform=" translate(-439.8405, -120.0923)" d="M 456.82639 77.77082 l -26.69508 -3.2555 l -20.50963 16.60304 s -10.20026 28.4207 -2.6044 45.57697 c 0.18201 0.4111 0.32555 28.97393 0.32555 28.97393 h 56.71743 s -0.05495 -19.44142 2.11224 -26.48271 c 0.3096 -1.0059 0.66455 -1.75873 1.07149 -2.16567 c 3.2555 -3.2555 11.06869 -24.09068 7.16209 -33.20607 c -3.9066 -9.11539 -17.57969 -26.04398 -17.57969 -26.04398 Z" stroke-linecap="round"/>
</g>
<g transform="matrix(1.4642 0 0 1.4642 634.6755 551.0013)" id="966544">
<polygon style="stroke: none; stroke-width: 1; stroke-dasharray: none; stroke-linecap: butt; stroke-dashoffset: 0; stroke-linejoin: miter; stroke-miterlimit: 4; is-custom-font: none; font-file-url: none; fill: rgb(111,163,214); fill-rule: nonzero; opacity: 1;" points="-12.9617,-105.1526 -48.7722,8.7898 -56.5854,98.6416 -34.7736,98.6416 -16.2173,15.3008 9.3371,-32.942 34.5685,105.1526 56.5854,105.1526 56.0548,-81.713 44.0351,-105.1526 -12.9617,-105.1526 "/>
</g>
<g transform="matrix(1.4642 0 0 1.4642 500.0021 775.9549)" id="330283">
<rect style="stroke: none; stroke-width: 1; stroke-dasharray: none; stroke-linecap: butt; stroke-dashoffset: 0; stroke-linejoin: miter; stroke-miterlimit: 4; is-custom-font: none; font-file-url: none; fill: rgb(146,144,177); fill-rule: nonzero; opacity: 1;" x="-328" y="-1" rx="0" ry="0" width="656" height="2"/>
</g>
<g transform="matrix(1.4642 0 0 1.4642 419.7467 613.5715)" id="105325">
<path style="stroke: none; stroke-width: 1; stroke-dasharray: none; stroke-linecap: butt; stroke-dashoffset: 0; stroke-linejoin: miter; stroke-miterlimit: 4; is-custom-font: none; font-file-url: none; fill: rgb(146,144,177); fill-rule: nonzero; opacity: 1;" transform=" translate(-273.189, -312.2531)" d="M 336.26362 187.42757 c -6.50229 -10.47037 -21.67223 -12.93381 -32.93992 -7.93906 c -11.26769 4.99475 -19.0565 15.64429 -24.35105 26.77426 c -5.29455 11.12996 -8.62502 23.12151 -14.06681 34.18023 c -16.01157 32.53845 -48.43603 53.78965 -68.83256 83.77469 c -15.32504 22.52941 -23.44045 49.88437 -22.88108 77.12621 c 0.21426 10.43456 1.9016 21.41209 8.41343 29.56819 c 9.66535 12.1059 26.77774 14.58924 42.18653 16.18335 c 8.95057 0.92597 19.93647 0.89956 24.54601 -6.82846 c 1.82337 -3.05693 -17.77064 -13.72146 -17.45627 -17.26697 c 1.69638 -19.13259 23.34373 -31.28271 25.04011 -50.41531 c 2.6597 13.33132 -0.7489 27.0942 -0.2109 40.67759 c 0.53799 13.58339 7.23345 28.94778 20.53418 31.75641 c 4.10444 0.86671 8.73862 0.26717 11.84946 -2.54713 c 3.11084 -2.81429 4.01941 -8.13071 1.24812 -11.27992 c 2.83767 2.89821 7.62638 3.6514 11.21672 1.76422 c 3.59034 -1.88718 5.68538 -6.25866 4.90727 -10.23943 c -0.5722 -2.92733 -2.46138 -5.38952 -4.0973 -7.88359 c -8.86167 -13.51019 -11.17027 -31.11518 -6.09158 -46.45342 c 8.97777 -27.11391 38.45973 -44.81167 43.45404 -72.93321 c 3.70897 -20.88416 -6.8726 -44.54836 4.35624 -62.54329 c 5.06032 -8.10949 13.65271 -13.22163 20.50586 -19.88533 c 6.85315 -6.6637 12.21238 -16.85889 8.29043 -25.57606 l -35.02913 -0.03819" stroke-linecap="round"/>
</g>
<g transform="matrix(1.4642 0 0 1.4642 327.133 731.263)" id="874975">
<path style="stroke: none; stroke-width: 1; stroke-dasharray: none; stroke-linecap: butt; stroke-dashoffset: 0; stroke-linejoin: miter; stroke-miterlimit: 4; is-custom-font: none; font-file-url: none; fill: rgb(111,163,214); fill-rule: nonzero; opacity: 1;" transform=" translate(-209.9369, -392.6332)" d="M 228.23833 426.7864 c -0.87183 0 -1.76514 -0.23291 -2.62842 -0.6958 c -1.98853 -1.06641 -3.48804 -3.1748 -3.82056 -5.37207 c -0.55322 -3.6543 1.1875 -7.20312 2.58618 -10.05469 c 3.82593 -7.79883 7.60791 -16.13818 8.16528 -24.80273 c 0.60889 -9.46045 -3.22852 -18.22949 -9.77563 -22.34082 c -4.86572 -3.05469 -11.36255 -3.84033 -18.29248 -2.21045 c -6.13794 1.44336 -11.6521 4.39404 -17.71045 7.81689 c -0.4812 0.27197 -1.09082 0.10254 -1.36255 -0.37891 c -0.27173 -0.48047 -0.10205 -1.09082 0.37866 -1.3623 c 5.96631 -3.37109 11.85034 -6.521 18.23633 -8.02295 c 7.45483 -1.75195 14.49146 -0.87793 19.81396 2.46436 c 7.16016 4.49609 11.36328 13.98047 10.70824 24.1626 c -0.58104 9.03027 -4.45141 17.57617 -8.36596 25.55518 c -1.34229 2.73682 -2.86377 5.83887 -2.40405 8.87451 c 0.23779 1.57129 1.35815 3.14209 2.78833 3.90869 c 0.69653 0.37402 1.75879 0.71045 2.86206 0.19727 c 0.50146 -0.23438 1.0957 -0.0166 1.32886 0.48389 s 0.0166 1.0957 -0.48413 1.32861 c -0.64282 0.2998 -1.32617 0.44873 -2.02368 0.44873 Z" stroke-linecap="round"/>
</g>
<g transform="matrix(1.4642 0 0 1.4642 460.8083 474.1921)" id="472791">
<path style="stroke: none; stroke-width: 1; stroke-dasharray: none; stroke-linecap: butt; stroke-dashoffset: 0; stroke-linejoin: miter; stroke-miterlimit: 4; is-custom-font: none; font-file-url: none; fill: rgb(111,163,214); fill-rule: nonzero; opacity: 1;" transform=" translate(-301.2332, -217.0616)" d="M 304.87324 186.74131 c -1.30944 3.58632 0.43745 7.60574 2.85869 10.55768 c 2.42124 2.95194 5.531 5.3258 7.66451 8.49194 c 4.47207 6.63654 3.80132 15.70946 0.36506 22.93685 c -3.43625 7.22739 -9.22913 13.01799 -14.91052 18.65402 c 0.41995 -2.41674 -0.80214 -4.85632 -2.46745 -6.65736 s -3.7617 -3.13792 -5.62402 -4.73441 c -8.67234 -7.43441 -11.3852 -20.98221 -6.24412 -31.18266" stroke-linecap="round"/>
</g>
<g transform="matrix(1.4642 0 0 1.4642 234.1914 725.1838)" id="17518">
<path style="stroke: none; stroke-width: 1; stroke-dasharray: none; stroke-linecap: butt; stroke-dashoffset: 0; stroke-linejoin: miter; stroke-miterlimit: 4; is-custom-font: none; font-file-url: none; fill: rgb(146,144,177); fill-rule: nonzero; opacity: 1;" transform=" translate(-146.4606, -388.4813)" d="M 186.42241 400.10863 c -7.34594 -0.9001 -13.55119 5.70986 -20.88233 6.72341 c -8.47755 1.17204 -16.27381 -5.53591 -20.04567 -13.21807 c -3.77186 -7.68216 -4.73983 -16.40208 -7.33471 -24.55739 c -2.59488 -8.15531 -7.60116 -16.41523 -15.75739 -19.00722 c -3.42187 -1.08745 -7.29353 -1.02838 -10.47242 0.64087 c -3.17889 1.66926 -5.50871 5.07712 -5.4292 8.66675 c 0.09784 4.41706 3.4851 7.95244 5.53718 11.8651 c 3.26521 6.2257 3.16378 13.59894 4.60607 20.47941 c 3.46765 16.54261 16.92397 30.57084 33.30801 34.72366 c 8.47267 2.14754 17.95749 1.6559 25.29692 -3.09078 s 11.81291 -14.30671 9.09603 -22.61434" stroke-linecap="round"/>
</g>
</svg>